<svg width="98" height="98" viewBox="0 0 98 98" fill="none" xmlns="http://www.w3.org/2000/svg">
<g clip-path="url(#clip0_1260_748)">
<path d="M92.1467 52.3242C92.1467 45.2453 90.4507 38.428 87.2559 32.3321L90.5371 28.7776C93.6001 25.4594 93.3926 20.268 90.0744 17.2049L90.0695 17.2003L91.3052 15.8614C92.1925 14.9002 92.6523 13.651 92.6002 12.3441C92.5481 11.0371 91.9898 9.82853 91.0288 8.94126L88.9211 6.99563C87.9596 6.10837 86.7114 5.64759 85.4036 5.70066C84.0967 5.75277 82.8882 6.31107 82.0009 7.2721L80.7649 8.61115L80.6423 8.49791C77.3245 5.43511 72.1331 5.64222 69.0697 8.96061L65.7619 12.544C62.9382 11.354 59.9867 10.47 56.9486 9.90727V5.8501C56.948 2.62425 54.3238 0 51.0979 0H46.7422C43.5166 0 40.8921 2.62425 40.8921 5.8501V9.9295C37.9113 10.4914 35.0156 11.3659 32.2362 12.5409L28.931 8.96042C25.8678 5.64241 20.6766 5.43473 17.3582 8.49772L17.2356 8.61095L15.9996 7.2721C14.1678 5.28816 11.0636 5.16381 9.07928 6.99563L6.97156 8.94107C6.01034 9.82834 5.45223 11.0367 5.40012 12.3438C5.34781 13.6508 5.80763 14.9 6.6949 15.8612L7.93068 17.2001L7.9255 17.2047C4.6075 20.2679 4.39981 25.4593 7.46281 28.7775L10.7542 32.3428C7.55611 38.4537 5.85362 45.2853 5.85362 52.3242C5.85362 63.8491 10.3417 74.6843 18.4909 82.8335C19.1028 83.4454 19.7318 84.0344 20.3733 84.6048L15.8555 93.8813C15.4204 94.7749 15.475 95.8116 16.0021 96.6544C16.5292 97.4973 17.4371 98.0004 18.4311 98.0004H19.8801C20.2842 98.0004 20.6764 97.917 21.045 97.7528L32.8749 92.4875C32.9209 92.467 32.9654 92.4442 33.0081 92.4197C38.0282 94.4208 43.433 95.471 49 95.471C54.5669 95.471 59.9717 94.4208 64.9919 92.4197C65.0346 92.4442 65.079 92.467 65.125 92.4875L76.9547 97.7526C77.3239 97.9168 77.7159 98.0002 78.1198 98.0002H79.5688C80.5628 98.0002 81.4706 97.4971 81.9977 96.6544C82.5245 95.8118 82.5795 94.7751 82.1444 93.8813L77.6266 84.6046C78.2681 84.0342 78.8971 83.4454 79.509 82.8335C87.6586 74.6841 92.1467 63.8489 92.1467 52.3242ZM84.1123 9.22137C84.4788 8.8242 84.9783 8.59371 85.5182 8.57206C86.0577 8.54888 86.5742 8.74047 86.9714 9.10718L89.0793 11.0528C89.4763 11.4195 89.7068 11.9186 89.7284 12.4587C89.7501 12.9986 89.56 13.5148 89.1935 13.9119L87.9577 15.2508L82.8765 10.5602L84.1123 9.22137ZM71.1809 10.9097C73.169 8.75561 76.539 8.6213 78.6927 10.6093L88.125 19.3164C90.2787 21.3046 90.4134 24.6743 88.4252 26.8282L85.7625 29.7128C84.0126 26.8797 81.9229 24.2288 79.509 21.8152C76.2311 18.5372 72.5178 15.8528 68.5005 13.8133L71.1809 10.9097ZM43.766 5.8501C43.766 4.20911 45.1011 2.87389 46.7422 2.87389H51.0979C52.7389 2.87389 54.0741 4.20891 54.0741 5.8501V9.47351C52.4021 9.27885 50.709 9.17769 49.0002 9.17769C47.235 9.17769 45.4886 9.28325 43.7662 9.48903V5.8501H43.766ZM8.80664 13.9118C8.04985 13.0921 8.10119 11.8094 8.92102 11.0526L11.0287 9.10699C11.8486 8.35 13.1311 8.40154 13.8879 9.22118L15.1238 10.56L10.0426 15.2506L8.80664 13.9118ZM19.8801 95.1261L18.4394 95.1393L22.649 86.4954C24.8079 88.1673 27.1036 89.6195 29.5086 90.8398L19.8801 95.1261ZM8.72751 52.3242C8.72751 42.1418 12.5391 32.4221 19.46 24.9557C19.9995 24.3737 19.965 23.4646 19.383 22.9251C18.8007 22.3855 17.8914 22.42 17.3523 23.0021C15.4181 25.0885 13.7131 27.3407 12.2457 29.7216L9.57493 26.8284C7.58677 24.6747 7.72165 21.3049 9.87534 19.3166L19.3077 10.6095C21.4615 8.62149 24.8311 8.75618 26.8194 10.9099L29.5017 13.8156C26.9515 15.1144 24.5138 16.6768 22.217 18.4975C21.5951 18.9905 21.4907 19.8944 21.9836 20.5162C22.4766 21.1381 23.3807 21.2425 24.0023 20.7495C26.5987 18.691 29.3879 16.9857 32.3241 15.6447C32.4329 15.6097 32.5387 15.5623 32.6387 15.5004C37.732 13.228 43.262 12.0518 49.0004 12.0518C71.2067 12.0518 89.273 30.1178 89.273 52.3242C89.273 74.5306 71.2067 92.5969 49.0004 92.5969C26.7938 92.5969 8.72751 74.5306 8.72751 52.3242ZM79.569 95.1261L78.1236 95.1269L68.4917 90.8398C70.8973 89.6191 73.1934 88.1667 75.3528 86.4943L79.569 95.1261Z" fill="#7441F3"/>
<path d="M79.0897 70.2466C78.4252 69.8122 77.5349 69.9985 77.1005 70.6627C70.8698 80.1897 60.3649 85.8775 49 85.8775C30.4986 85.8775 15.4467 70.8256 15.4467 52.3242C15.4467 33.823 30.4986 18.7711 49 18.7711C67.5012 18.7711 82.5533 33.823 82.5533 52.3242C82.5533 56.8903 81.6516 61.3176 79.8737 65.4838C79.5619 66.2138 79.9013 67.0579 80.631 67.3694C81.3618 67.6815 82.2054 67.3417 82.5167 66.6119C84.448 62.0872 85.4272 57.2802 85.4272 52.3242C85.4272 32.2384 69.086 15.8972 49 15.8972C28.914 15.8972 12.573 32.2382 12.573 52.3242C12.573 72.4103 28.9142 88.7514 49.0002 88.7514C61.3384 88.7514 72.7424 82.5773 79.5058 72.2357C79.9402 71.5715 79.7537 70.6809 79.0897 70.2466Z" fill="#7441F3"/>
<path d="M73.7455 52.3242C73.7455 40.2579 65.0251 29.9887 53.267 27.9472C52.9693 25.8585 51.1699 24.2472 49.0003 24.2472C46.6232 24.2472 44.6894 26.1809 44.6894 28.558V34.2248C44.6894 35.0184 45.3328 35.6617 46.1264 35.6617C46.92 35.6617 47.5633 35.0184 47.5633 34.2248V28.558C47.5633 27.7656 48.2078 27.1211 49.0003 27.1211C49.7927 27.1211 50.4372 27.7656 50.4372 28.558V44.4589C49.9707 44.3738 49.4909 44.3271 49.0003 44.3271C48.5096 44.3271 48.0298 44.3738 47.5633 44.4589V40.3487C47.5633 39.5551 46.92 38.9117 46.1264 38.9117C45.3328 38.9117 44.6894 39.5551 44.6894 40.3487V45.5937C42.4746 47.0173 41.0032 49.5015 41.0032 52.3242C41.0032 56.3875 44.0503 59.7503 47.9791 60.2538L55.3299 75.8124C56.039 77.3129 57.5696 78.2826 59.2296 78.2824C59.8691 78.2824 60.488 78.1431 61.0695 77.8685C62.1106 77.3767 62.8978 76.5088 63.286 75.4248C63.6259 74.4764 63.6248 73.4617 63.2895 72.5254C69.8584 67.8806 73.7455 60.4207 73.7455 52.3242ZM43.8769 52.3242C43.8769 49.4992 46.1752 47.201 49.0001 47.201C51.8249 47.201 54.1233 49.4993 54.1233 52.3242C54.1233 55.149 51.8249 57.4474 49.0001 57.4474C48.9991 57.4474 48.998 57.4474 48.997 57.4474C46.1735 57.4457 43.8769 55.1481 43.8769 52.3242ZM59.8416 75.27C59.6471 75.3617 59.4411 75.4083 59.2292 75.4083C58.6753 75.4083 58.1647 75.0849 57.9283 74.5844L51.0614 60.0506C52.0073 59.798 52.8837 59.3756 53.6579 58.8188L60.5267 73.3569C60.865 74.0733 60.5577 74.9314 59.8416 75.27ZM62.0575 69.8693L55.7733 56.5684C56.5475 55.3374 56.9974 53.8826 56.9974 52.324C56.9974 49.5013 55.5259 47.0171 53.3111 45.5935V30.8786C63.4293 32.897 70.8716 41.8433 70.8716 52.324C70.8716 59.3024 67.6043 65.7461 62.0575 69.8693Z" fill="#7441F3"/>
</g>
<defs>
<clipPath id="clip0_1260_748">
<rect width="98" height="98" fill="white"/>
</clipPath>
</defs>
</svg>
