<svg width="115" height="81" viewBox="0 0 115 81" fill="none" xmlns="http://www.w3.org/2000/svg">
<path d="M112.344 60.6094H110.516V45.9844C110.513 44.0458 109.742 42.1873 108.371 40.8165C107 39.4457 105.142 38.6744 103.203 38.6719V7.59375C103.201 5.65513 102.429 3.79665 101.059 2.42584C99.6877 1.05503 97.8292 0.283789 95.8906 0.28125H19.1094C17.1708 0.283789 15.3123 1.05503 13.9415 2.42584C12.5707 3.79665 11.7994 5.65513 11.7969 7.59375V38.6719C9.85826 38.6744 7.99977 39.4457 6.62896 40.8165C5.25815 42.1873 4.48691 44.0458 4.48438 45.9844V60.6094H2.65625C2.1714 60.6094 1.70641 60.802 1.36357 61.1448C1.02073 61.4877 0.828125 61.9527 0.828125 62.4375V69.75C0.828125 70.2348 1.02073 70.6998 1.36357 71.0427C1.70641 71.3855 2.1714 71.5781 2.65625 71.5781H4.48438V78.8906C4.48438 79.3755 4.67698 79.8405 5.01982 80.1833C5.36266 80.5261 5.82765 80.7188 6.3125 80.7188H11.7969C12.2194 80.7189 12.6289 80.5726 12.9556 80.3047C13.2823 80.0367 13.5059 79.6638 13.5884 79.2494L15.1241 71.5781H99.8759L101.412 79.2494C101.494 79.6638 101.718 80.0367 102.044 80.3047C102.371 80.5726 102.781 80.7189 103.203 80.7188H108.688C109.172 80.7188 109.637 80.5261 109.98 80.1833C110.323 79.8405 110.516 79.3755 110.516 78.8906V71.5781H112.344C112.829 71.5781 113.294 71.3855 113.636 71.0427C113.979 70.6998 114.172 70.2348 114.172 69.75V62.4375C114.172 61.9527 113.979 61.4877 113.636 61.1448C113.294 60.802 112.829 60.6094 112.344 60.6094ZM15.4531 7.59375C15.4544 6.62444 15.84 5.6952 16.5254 5.00979C17.2108 4.32439 18.1401 3.93877 19.1094 3.9375H95.8906C96.8599 3.93877 97.7892 4.32439 98.4746 5.00979C99.16 5.6952 99.5456 6.62444 99.5469 7.59375V38.6719H95.8906V31.3594C95.8881 29.4208 95.1169 27.5623 93.746 26.1915C92.3752 24.8207 90.5167 24.0494 88.5781 24.0469H66.6406C64.702 24.0494 62.8435 24.8207 61.4727 26.1915C60.1019 27.5623 59.3307 29.4208 59.3281 31.3594V38.6719H55.6719V31.3594C55.6693 29.4208 54.8981 27.5623 53.5273 26.1915C52.1565 24.8207 50.298 24.0494 48.3594 24.0469H26.4219C24.4833 24.0494 22.6248 24.8207 21.254 26.1915C19.8832 27.5623 19.1119 29.4208 19.1094 31.3594V38.6719H15.4531V7.59375ZM92.2344 31.3594V38.6719H62.9844V31.3594C62.9856 30.3901 63.3713 29.4608 64.0567 28.7754C64.7421 28.09 65.6713 27.7044 66.6406 27.7031H88.5781C89.5474 27.7044 90.4767 28.09 91.1621 28.7754C91.8475 29.4608 92.2331 30.3901 92.2344 31.3594ZM52.0156 31.3594V38.6719H22.7656V31.3594C22.7669 30.3901 23.1525 29.4608 23.8379 28.7754C24.5233 28.09 25.4526 27.7044 26.4219 27.7031H48.3594C49.3287 27.7044 50.2579 28.09 50.9433 28.7754C51.6287 29.4608 52.0144 30.3901 52.0156 31.3594ZM8.14062 45.9844C8.14189 45.0151 8.52751 44.0858 9.21292 43.4004C9.89832 42.715 10.8276 42.3294 11.7969 42.3281H103.203C104.172 42.3294 105.102 42.715 105.787 43.4004C106.472 44.0858 106.858 45.0151 106.859 45.9844V60.6094H8.14062V45.9844ZM10.2978 77.0625H8.14062V71.5781H11.3947L10.2978 77.0625ZM106.859 77.0625H104.702L103.605 71.5781H106.859V77.0625ZM110.516 67.9219H4.48438V64.2656H110.516V67.9219Z" fill="#7441F3"/>
</svg>
