<svg width="64" height="94" viewBox="0 0 64 94" fill="none" xmlns="http://www.w3.org/2000/svg">
<path d="M34.125 10.9388C34.125 9.76575 33.1751 8.81375 32 8.81375C20.2827 8.81375 10.75 18.3465 10.75 30.0638C10.75 31.2368 11.6999 32.1888 12.875 32.1888C14.0501 32.1888 15 31.2368 15 30.0638C15 20.6904 22.6266 13.0638 32 13.0638C33.1751 13.0638 34.125 12.1118 34.125 10.9388Z" fill="#7441F3"/>
<path d="M28.2727 93.3037H32H35.7272C39.2377 93.3037 42.1001 90.4456 42.1022 86.9287V84.5934C44.2952 83.584 45.8316 81.3804 45.8316 78.8112V70.9062C46.2056 70.0945 46.4287 69.202 46.4287 68.25C46.4287 66.091 46.909 64 47.8546 62.0301C48.7917 60.0773 50.1624 58.3071 51.8156 56.911C59.7759 50.1854 63.9472 39.9344 62.9719 29.4794C61.4844 13.8075 48.4942 1.45275 32.6587 0.738749L32 0.717499L31.2477 0.740874C15.5057 1.45275 2.5156 13.8075 1.02598 29.4836C0.0527261 39.9322 4.2241 50.1854 12.1844 56.9089C13.8376 58.3071 15.2082 60.0773 16.1454 62.0301C17.091 64 17.5712 66.091 17.5712 68.25C17.5712 69.1999 17.7944 70.0945 18.1684 70.9062V78.8134C18.1684 81.3825 19.7026 83.5882 21.8977 84.5955V86.933C21.8999 90.4456 24.7622 93.3037 28.2727 93.3037ZM37.8522 86.9287C37.8522 88.1017 36.8981 89.0537 35.7272 89.0537H32H28.2727C27.1019 89.0537 26.1477 88.0996 26.1477 86.9287V85.1862H32H37.8522V86.9287ZM41.5816 78.8134C41.5816 79.9842 40.6296 80.9384 39.4566 80.9384H32H24.5434C23.3704 80.9384 22.4184 79.9842 22.4184 78.8134V74.4189C22.9114 74.5421 23.4171 74.625 23.9462 74.625H32H40.0537C40.5829 74.625 41.0886 74.5421 41.5816 74.4189V78.8134ZM21.8212 68.25C21.8212 65.4492 21.2007 62.7356 19.9767 60.1899C18.7804 57.7015 17.0336 55.4447 14.9277 53.664C8.02785 47.8372 4.41323 38.9462 5.25685 29.8831C6.54673 16.3065 17.8007 5.60287 31.3412 4.98875L32 4.9675L32.5631 4.98662C46.1992 5.60287 57.4532 16.3065 58.741 29.8789C59.5867 38.9462 55.9721 47.8372 49.0722 53.664C46.9664 55.4447 45.2196 57.7015 44.0232 60.1899C42.7992 62.7356 42.1787 65.4492 42.1787 68.25C42.1787 69.4209 41.2267 70.375 40.0537 70.375H32H23.9462C22.7732 70.375 21.8212 69.4209 21.8212 68.25Z" fill="#7441F3"/>
</svg>
