<svg width="116" height="116" viewBox="0 0 116 116" fill="none" xmlns="http://www.w3.org/2000/svg">
<g clip-path="url(#clip0_1260_729)">
<path d="M35.9249 34.9687C42.1027 29.8123 49.9425 26.9726 57.9999 26.9726C66.1736 26.9726 74.0991 29.884 80.3164 35.1706C86.4639 40.398 90.6016 47.6304 91.9673 55.5358C92.1095 56.3586 92.8239 56.9391 93.6314 56.9391C93.7269 56.9391 93.8239 56.931 93.921 56.9143C94.8412 56.7554 95.4582 55.8805 95.2993 54.9605C93.7995 46.2769 89.2561 38.3338 82.5068 32.5947C75.6787 26.7889 66.9754 23.5914 57.9999 23.5914C49.1519 23.5914 40.5429 26.71 33.7583 32.3729C33.0412 32.9712 32.9454 34.0374 33.5437 34.7541C34.1417 35.4707 35.208 35.5669 35.9249 34.9687Z" fill="#7441F3"/>
<path d="M57.8872 19.6666C60.715 19.6666 63.0157 17.3659 63.0157 14.5379V7.89845C63.0157 5.07071 60.715 2.77002 57.8872 2.77002C55.0595 2.77002 52.7588 5.07071 52.7588 7.89845V14.5379C52.7588 17.3659 55.0595 19.6666 57.8872 19.6666ZM56.1402 7.89845C56.1402 6.93521 56.924 6.15141 57.8872 6.15141C58.8505 6.15141 59.6343 6.93521 59.6343 7.89845V14.5379C59.6343 15.5012 58.8505 16.2852 57.8872 16.2852C56.924 16.2852 56.1402 15.5012 56.1402 14.5379V7.89845Z" fill="#7441F3"/>
<path d="M21.1245 31.9831C22.0932 32.952 23.381 33.4854 24.751 33.4854C26.1209 33.4854 27.4087 32.952 28.3776 31.9834C28.3776 31.9831 28.3776 31.9831 28.3776 31.9831C30.3769 29.9836 30.3769 26.73 28.3774 24.7303L23.6827 20.0358C22.714 19.0669 21.4262 18.5336 20.0562 18.5336C18.6863 18.5336 17.3985 19.0669 16.4298 20.0356C14.4303 22.0353 14.4303 25.2889 16.4298 27.2886L21.1245 31.9831ZM18.8209 22.4264C19.1509 22.0964 19.5894 21.9147 20.056 21.9147C20.5226 21.9147 20.9613 22.0964 21.2913 22.4267L25.9861 27.1212C26.6671 27.8024 26.6671 28.9108 25.9861 29.5923C25.656 29.9223 25.2174 30.104 24.7507 30.104C24.2841 30.104 23.8454 29.9223 23.5156 29.592L18.8209 24.8973C18.1397 24.2163 18.1397 23.1079 18.8209 22.4264Z" fill="#7441F3"/>
<path d="M5.12843 66.6876H10.6408C13.4685 66.6876 15.7692 64.3869 15.7692 61.559C15.7692 58.7312 13.4685 56.4305 10.6408 56.4305H5.12843C2.30069 56.4305 0 58.7312 0 61.559C0 64.3869 2.30069 66.6876 5.12843 66.6876ZM5.12843 59.8119H10.6408C11.604 59.8119 12.3878 60.5957 12.3878 61.559C12.3878 62.5222 11.604 63.3062 10.6408 63.3062H5.12843C4.16519 63.3062 3.38139 62.5222 3.38139 61.559C3.38139 60.5957 4.16519 59.8119 5.12843 59.8119Z" fill="#7441F3"/>
<path d="M87.6223 31.9834C88.5912 32.952 89.879 33.4854 91.2489 33.4854C92.6188 33.4854 93.9067 32.952 94.8754 31.9834L99.5701 27.2886C101.57 25.2889 101.57 22.0353 99.5701 20.0358C98.6014 19.0669 97.3136 18.5336 95.9436 18.5336C94.5737 18.5336 93.2859 19.0669 92.3174 20.0356L87.6223 24.7305C85.623 26.73 85.623 29.9836 87.6223 31.9834C87.6223 31.9831 87.6223 31.9831 87.6223 31.9834ZM90.0134 27.1214L94.7085 22.4264C95.0386 22.0964 95.477 21.9147 95.9436 21.9147C96.4103 21.9147 96.849 22.0964 97.1787 22.4267C97.86 23.1077 97.86 24.2161 97.1787 24.8973L92.484 29.5923C92.154 29.9223 91.7156 30.104 91.2489 30.104C90.7823 30.104 90.3434 29.9223 90.0136 29.5923C89.3324 28.911 89.3324 27.8026 90.0134 27.1214Z" fill="#7441F3"/>
<path d="M100.231 61.559C100.231 64.3869 102.531 66.6876 105.359 66.6876H110.871C113.699 66.6876 116 64.3869 116 61.559C116 58.7312 113.699 56.4305 110.871 56.4305H105.359C102.531 56.4305 100.231 58.7312 100.231 61.559ZM112.619 61.559C112.619 62.5222 111.835 63.3062 110.871 63.3062H105.359C104.396 63.3062 103.612 62.5222 103.612 61.559C103.612 60.5957 104.396 59.8119 105.359 59.8119H110.871C111.835 59.8119 112.619 60.5957 112.619 61.559Z" fill="#7441F3"/>
<path d="M37.059 17.4959C37.3827 17.9962 37.9258 18.2685 38.4801 18.2685C38.7948 18.2685 39.1133 18.1806 39.3969 17.9971C40.1809 17.4899 40.4052 16.443 39.898 15.6592L38.2632 13.1326C37.7558 12.3483 36.7087 12.1247 35.9254 12.6315C35.1413 13.1387 34.917 14.1856 35.4242 14.9694L37.059 17.4959Z" fill="#7441F3"/>
<path d="M9.35786 44.0195L12.2934 44.6818C12.4187 44.71 12.5436 44.7237 12.6669 44.7237C13.4399 44.7237 14.1373 44.1904 14.3147 43.4045C14.5201 42.4936 13.9484 41.5887 13.0375 41.3831L10.102 40.7208C9.19127 40.5159 8.28618 41.0872 8.0806 41.9981C7.87523 42.9093 8.44691 43.8139 9.35786 44.0195Z" fill="#7441F3"/>
<path d="M76.6029 17.9971C76.887 18.1806 77.205 18.2685 77.5197 18.2685C78.0741 18.2685 78.6171 17.9962 78.9408 17.496L80.5756 14.9694C81.0828 14.1854 80.8585 13.1387 80.0745 12.6315C79.2905 12.125 78.2443 12.3484 77.7366 13.1326L76.1018 15.6592C75.5948 16.443 75.8191 17.4899 76.6029 17.9971Z" fill="#7441F3"/>
<path d="M103.333 44.7236C103.456 44.7236 103.582 44.7098 103.707 44.6817L106.642 44.0194C107.553 43.8138 108.125 42.9089 107.919 41.998C107.714 41.0872 106.81 40.5158 105.898 40.7207L102.963 41.383C102.052 41.5886 101.48 42.4935 101.685 43.4044C101.863 44.1902 102.56 44.7236 103.333 44.7236Z" fill="#7441F3"/>
<path d="M114.309 77.2292H92.4085C94.5122 72.6366 95.6927 67.6142 95.8377 62.5441C95.8643 61.6106 95.1292 60.8325 94.1959 60.8059C93.2523 60.7842 92.4843 61.5144 92.4577 62.4476C92.3109 67.5894 90.9985 72.6781 88.6536 77.229H27.3473C24.8455 72.3754 23.5261 66.9406 23.5261 61.4463C23.5261 53.5149 26.1464 46.0587 31.1038 39.8837C31.6883 39.1555 31.5718 38.0913 30.8439 37.5068C30.1157 36.9225 29.0515 37.039 28.467 37.7667C23.1003 44.4517 20.1447 52.8614 20.1447 61.4463C20.1447 66.9014 21.3325 72.3023 23.591 77.229H1.69069C0.756754 77.229 0 77.9858 0 78.9197C0 79.8537 0.756754 80.6104 1.69069 80.6104H114.309C115.243 80.6104 116 79.8537 116 78.9197C116 77.9858 115.243 77.2292 114.309 77.2292Z" fill="#7441F3"/>
<path d="M103.334 88.1022H12.6655C11.7316 88.1022 10.9749 88.8589 10.9749 89.7929C10.9749 90.7268 11.7316 91.4836 12.6655 91.4836H103.335C104.269 91.4836 105.025 90.7268 105.025 89.7929C105.025 88.8589 104.268 88.1022 103.334 88.1022Z" fill="#7441F3"/>
<path d="M69.5092 109.849H46.491C45.557 109.849 44.8003 110.605 44.8003 111.539C44.8003 112.473 45.557 113.23 46.491 113.23H69.509C70.4429 113.23 71.1997 112.473 71.1997 111.539C71.1997 110.605 70.4429 109.849 69.5092 109.849Z" fill="#7441F3"/>
<path d="M63.9641 102.357C64.898 102.357 65.6548 101.6 65.6548 100.666C65.6548 99.7321 64.898 98.9753 63.9641 98.9753H52.0359C51.102 98.9753 50.3452 99.7321 50.3452 100.666C50.3452 101.6 51.102 102.357 52.0359 102.357H63.9641Z" fill="#7441F3"/>
<path d="M42.5443 98.9753H24.8775C23.9435 98.9753 23.1868 99.7321 23.1868 100.666C23.1868 101.6 23.9435 102.357 24.8775 102.357H42.5443C43.4782 102.357 44.235 101.6 44.235 100.666C44.235 99.7321 43.478 98.9753 42.5443 98.9753Z" fill="#7441F3"/>
<path d="M91.1227 98.9753H73.4558C72.5219 98.9753 71.7651 99.7321 71.7651 100.666C71.7651 101.6 72.5219 102.357 73.4558 102.357H91.1227C92.0566 102.357 92.8134 101.6 92.8134 100.666C92.8134 99.7321 92.0564 98.9753 91.1227 98.9753Z" fill="#7441F3"/>
</g>
<defs>
<clipPath id="clip0_1260_729">
<rect width="116" height="116" fill="white"/>
</clipPath>
</defs>
</svg>
