<svg width="166" height="166" viewBox="0 0 166 166" fill="none" xmlns="http://www.w3.org/2000/svg">
<g opacity="0.5">
<path d="M140.3 0H25.6998C11.5289 0 0 11.5289 0 25.6998V140.3C0 154.471 11.5289 166 25.6998 166H140.3C154.471 166 166 154.471 166 140.3V25.6998C166 11.5289 154.471 0 140.3 0ZM156.273 140.3C156.273 149.108 149.108 156.273 140.3 156.273H25.6998C16.8921 156.273 9.72656 149.108 9.72656 140.3V51.3994H156.273V140.3ZM156.273 41.6728H9.72656V25.6998C9.72656 16.8921 16.8921 9.72656 25.6998 9.72656H140.3C149.108 9.72656 156.273 16.8921 156.273 25.6998V41.6728Z" fill="#2B2B3D"/>
<path d="M30.9087 20.8364H25.6998C19.257 21.0741 19.2563 30.325 25.6998 30.563H30.9087C37.3516 30.325 37.3523 21.0744 30.9087 20.8364Z" fill="#2B2B3D"/>
<path d="M54.35 20.8364H49.1407C42.6979 21.0741 42.6972 30.325 49.1407 30.563H54.35C60.7925 30.325 60.7935 21.0744 54.35 20.8364Z" fill="#2B2B3D"/>
<path d="M77.7911 20.8364H72.5819C66.139 21.0741 66.1384 30.325 72.5819 30.563H77.7911C84.2337 30.325 84.2347 21.0744 77.7911 20.8364Z" fill="#2B2B3D"/>
<path d="M78.6244 103.682C81.0369 101.27 84.9632 101.27 87.3757 103.682C89.2753 105.581 92.3551 105.58 94.2534 103.68C96.152 101.78 96.1513 98.701 94.2514 96.8024C88.0475 90.6017 77.9526 90.6017 71.7487 96.8024C67.3604 101.526 73.8976 108.069 78.6244 103.682Z" fill="#2B2B3D"/>
<path d="M119.464 87.8632C122.15 87.8632 124.327 85.6857 124.327 82.9999V77.7907C124.089 71.3478 114.839 71.3471 114.601 77.7907V82.9999C114.601 85.6857 116.778 87.8632 119.464 87.8632Z" fill="#2B2B3D"/>
<path d="M46.5361 87.8632C49.222 87.8632 51.3994 85.6857 51.3994 82.9999V77.7907C51.1618 71.3478 41.9108 71.3471 41.6729 77.7907V82.9999C41.6729 85.6857 43.8503 87.8632 46.5361 87.8632Z" fill="#2B2B3D"/>
</g>
</svg>
