<svg width="90" height="90" viewBox="0 0 90 90" fill="none" xmlns="http://www.w3.org/2000/svg">
<path d="M29.1797 0C27.7235 0 26.543 1.18055 26.543 2.63672V16.1719H18.6328C17.1766 16.1719 15.9961 17.3524 15.9961 18.8086V29.3555C15.9961 30.8116 17.1766 31.9922 18.6328 31.9922H21.2695V45.1758C21.2695 57.4149 30.5833 67.5188 42.4953 68.7742C43.7507 80.6862 53.8546 90 66.0938 90C67.5499 90 68.7305 88.8195 68.7305 87.3633C68.7305 85.9071 67.5499 84.7266 66.0938 84.7266C56.7541 84.7266 49.0136 77.7533 47.8025 68.74C59.5716 67.349 68.7305 57.3126 68.7305 45.1758V31.9922H71.3672C72.8234 31.9922 74.0039 30.8116 74.0039 29.3555V18.8086C74.0039 17.3524 72.8234 16.1719 71.3672 16.1719H63.457V2.63672C63.457 1.18055 62.2765 0 60.8203 0C59.3641 0 58.1836 1.18055 58.1836 2.63672V16.1719H31.8164V2.63672C31.8164 1.18055 30.6359 0 29.1797 0ZM68.7305 26.7188H66.0938C64.6376 26.7188 63.457 27.8993 63.457 29.3555V45.1758C63.457 55.353 55.1772 63.6328 45 63.6328C34.8228 63.6328 26.543 55.353 26.543 45.1758V29.3555C26.543 27.8993 25.3624 26.7188 23.9062 26.7188H21.2695V21.4453H68.7305V26.7188Z" fill="#7441F3"/>
<path d="M51.4525 42.8173L44.1776 39.1799L46.8643 36.4932C49.3291 34.0286 45.6039 30.2956 43.1354 32.7644L37.862 38.0378C36.5909 39.3089 36.9381 41.4561 38.5472 42.2606L45.8221 45.8981L43.1354 48.5847C40.6648 51.0551 44.4241 54.7541 46.8643 52.3135L52.1377 47.0401C53.409 45.769 53.0616 43.622 51.4525 42.8173Z" fill="#7441F3"/>
</svg>
