<svg width="96" height="96" viewBox="0 0 96 96" fill="none" xmlns="http://www.w3.org/2000/svg">
<path d="M91.5938 31.3125H86.625V28.4749C86.625 26.1072 84.7054 24.1875 82.3376 24.1875H79.3125V21.7829C79.3125 21.0062 78.6829 20.3766 77.9062 20.3766C77.1296 20.3766 76.5 21.0062 76.5 21.7829V24.1875H68.625V10.4093C68.625 8.27704 70.2797 6.45867 72.4104 6.37786C74.6505 6.29311 76.5 8.09104 76.5 10.3125V13.5964C76.5 14.373 77.1296 15.0027 77.9062 15.0027C78.6829 15.0027 79.3125 14.373 79.3125 13.5964V10.4391C79.3125 6.75304 76.4102 3.65161 72.7251 3.56442C68.9291 3.47479 65.8125 6.53648 65.8125 10.3125V21.2414C64.7032 20.4417 63.3437 19.9688 61.875 19.9688C59.7019 19.9688 57.7667 21.0021 56.5312 22.6019C55.2958 21.0019 53.3606 19.9688 51.1875 19.9688C49.7188 19.9688 48.3592 20.4417 47.25 21.2414V10.4391C47.25 6.75304 44.3477 3.65161 40.6626 3.56442C36.8666 3.47479 33.75 6.53648 33.75 10.3125V24.1875H26.7671C26.1079 22.8569 24.7391 21.9375 23.1562 21.9375C21.9615 21.9375 20.8899 22.4629 20.151 23.2913C17.958 21.46 15.1813 20.4375 12.2812 20.4375C5.50931 20.4375 0 25.9469 0 32.7188C0 39.4907 5.50931 45 12.2812 45C15.1697 45 17.9541 43.9733 20.1486 42.1437C20.8875 42.9735 21.9604 43.5 23.1562 43.5C24.7391 43.5 26.1079 42.5807 26.7671 41.25H34.0292C35.7444 52.1254 45.1813 60.4688 56.5312 60.4688C60.7684 60.4688 64.8718 59.2982 68.4264 57.1189C69.1971 56.6464 69.324 55.5775 68.6848 54.9383C68.2299 54.4834 67.5229 54.397 66.9741 54.7324C63.9709 56.5675 60.4466 57.6284 56.6812 57.6557C45.6161 57.7364 36.5625 48.52 36.5625 37.4549V27.9375H55.4033C57.5355 27.9375 59.3539 29.5922 59.4347 31.723C59.5194 33.963 57.7215 35.8125 55.5 35.8125H42.1414C41.4861 35.8125 40.8866 36.2412 40.7304 36.8775C40.5362 37.6686 41.04 38.4366 41.8108 38.5964C41.8343 38.6012 44.196 39.1013 46.4923 40.4999C49.3493 42.2397 50.8026 44.5324 50.8125 47.3153C50.8151 48.0676 51.4072 48.7176 52.1587 48.7489C52.9627 48.7823 53.625 48.1405 53.625 47.344C53.625 45.6077 53.2127 43.9969 52.4107 42.5432C54.0787 42.2365 55.5334 41.3155 56.5312 40.0232C57.7667 41.6232 59.7019 42.6563 61.875 42.6563C63.4239 42.6563 64.8516 42.1306 65.9919 41.25H76.1835C75.63 44.3532 74.3749 47.1856 72.5942 49.5917C72.1886 50.1396 72.2482 50.9022 72.7303 51.3842C72.7369 51.3908 72.7434 51.3974 72.75 51.4039C73.3506 52.0045 74.3391 51.9211 74.8447 51.2387C77.0203 48.3036 78.4624 44.8838 79.0337 41.25H82.3374C84.7054 41.25 86.625 39.3304 86.625 36.9627V34.125H91.5938C92.4739 34.125 93.1875 34.8387 93.1875 35.7188V69.8438C93.1875 72.2774 91.2148 74.2501 88.7812 74.2501H25.9166C21.9748 74.2501 18.6578 77.3537 18.5646 81.2946C18.4684 85.3542 21.7429 88.6876 25.7812 88.6876H66.009C66.6229 90.8491 68.6132 92.4376 70.9688 92.4376H78.0938C78.8704 92.4376 79.5 91.8079 79.5 91.0313V88.6876H81.5974C82.3674 88.6876 83.0389 88.0941 83.0619 87.3244C83.0858 86.5281 82.4473 85.8751 81.6562 85.8751H79.5V83.5313C79.5 82.7547 78.8704 82.1251 78.0938 82.1251H70.9688C68.6132 82.1251 66.6229 83.7136 66.009 85.8751H25.8814C23.4163 85.8751 21.3339 83.8579 21.3756 81.3932C21.4161 78.9983 23.3769 77.0626 25.7812 77.0626H88.7812C92.7302 77.0626 95.9471 73.8747 95.9976 69.9376H96V35.7188C96 33.2852 94.0273 31.3125 91.5938 31.3125ZM19.125 39.2579C17.3424 41.1216 14.8658 42.1875 12.2812 42.1875C7.06012 42.1875 2.8125 37.9399 2.8125 32.7188C2.8125 27.4977 7.06012 23.25 12.2812 23.25C14.8748 23.25 17.3411 24.3104 19.125 26.1756V39.2579ZM24.375 39.4688C24.375 40.1408 23.8283 40.6875 23.1562 40.6875C22.4842 40.6875 21.9375 40.1408 21.9375 39.4688V25.9688C21.9375 25.2968 22.4842 24.75 23.1562 24.75C23.8283 24.75 24.375 25.2968 24.375 25.9688V39.4688ZM33.75 38.4375H27.1875V27H33.75V38.4375ZM44.4375 25.125H36.5625V10.3125C36.5625 8.14148 38.3288 6.37504 40.5 6.37504C42.6712 6.37504 44.4375 8.14148 44.4375 10.3125V25.125ZM47.5901 25.125C48.2034 23.7464 49.5838 22.7813 51.1875 22.7813C52.7912 22.7813 54.1716 23.7464 54.7849 25.125H47.5901ZM51.1875 39.8438C50.8189 39.8438 50.4574 39.7909 50.1079 39.6914C49.6941 39.3192 49.2493 38.962 48.7652 38.6249H54.0287C53.3115 39.3743 52.3042 39.8438 51.1875 39.8438ZM65.8125 35.9063C65.8125 38.0774 64.0461 39.8438 61.875 39.8438C60.4404 39.8438 59.1863 39.07 58.4979 37.9204C60.7194 36.8144 62.25 34.5207 62.25 31.875C62.25 29.0706 60.5304 26.6609 58.0907 25.6427C58.5604 23.9937 60.0773 22.7813 61.875 22.7813C64.0461 22.7813 65.8125 24.5477 65.8125 26.7188V35.9063ZM83.8125 36.9627C83.8125 37.7761 83.151 38.4375 82.3376 38.4375H68.1308C68.4484 37.6553 68.625 36.8012 68.625 35.9063V27H82.3376C83.151 27 83.8125 27.6615 83.8125 28.4749V36.9627ZM70.9688 84.9376H76.6875V89.6251H70.9688C69.6763 89.6251 68.625 88.5737 68.625 87.2813C68.625 85.9889 69.6763 84.9376 70.9688 84.9376Z" fill="#7441F3"/>
</svg>
