<svg width="219" height="219" viewBox="0 0 219 219" fill="none" xmlns="http://www.w3.org/2000/svg">
<g clip-path="url(#clip0_669_1660)">
<path d="M213.735 188.704L162.71 137.677C161.908 136.875 160.818 136.424 159.685 136.424C158.551 136.424 157.461 136.875 156.659 137.677L156.451 137.888L148.755 130.192C158.407 116.738 164.096 100.259 164.096 82.4759C164.096 37.2346 127.289 0.427734 82.0481 0.427734C64.476 0.427734 47.0458 6.21719 32.9656 16.7284C31.0726 18.142 30.6849 20.8203 32.0968 22.7134C33.5103 24.6064 36.1903 24.9957 38.0834 23.5822C50.6949 14.167 66.3089 8.98242 82.0481 8.98242C122.573 8.98242 155.542 41.9514 155.542 82.4759C155.542 122.999 122.573 155.969 82.0481 155.969C41.5237 155.969 8.55469 123 8.55469 82.4759C8.55469 69.5921 11.9599 56.8853 18.4009 45.7292C19.5822 43.6824 18.8805 41.0675 16.8354 39.8862C14.7903 38.705 12.1737 39.405 10.9924 41.4518C3.80116 53.9062 0 68.0933 0 82.4759C0 127.717 36.8069 164.524 82.0481 164.524C99.8326 164.524 116.312 158.833 129.767 149.181L137.461 156.877L137.251 157.087C135.582 158.756 135.582 161.465 137.251 163.136L188.278 214.163C191.668 217.553 196.188 219.419 201.007 219.419C205.827 219.419 210.348 217.553 213.737 214.163C220.754 207.145 220.754 195.724 213.735 188.704ZM136.487 143.804C138.917 141.644 141.219 139.343 143.378 136.913L150.402 143.936L143.512 150.827L136.487 143.804ZM207.687 208.115C205.912 209.887 203.541 210.865 201.007 210.865C198.472 210.865 196.1 209.889 194.327 208.115L146.324 160.111L146.526 159.909C146.529 159.906 146.532 159.904 146.534 159.901L159.475 146.962C159.478 146.959 159.481 146.954 159.485 146.95L159.684 146.751L207.687 194.755C211.371 198.437 211.371 204.43 207.687 208.115Z" fill="#7441F3"/>
<path d="M19.1244 36.5612C19.9164 37.2112 20.8738 37.527 21.8262 37.527C23.0693 37.527 24.3023 36.989 25.1511 35.9564L25.228 35.8611C26.7134 34.0249 26.4277 31.3315 24.5897 29.8461C22.7535 28.3624 20.0601 28.6481 18.5747 30.4844L18.538 30.5312C18.5363 30.5312 18.5196 30.5512 18.5196 30.5529C17.0225 32.3791 17.2982 35.0642 19.1244 36.5612Z" fill="#7441F3"/>
<path d="M141.251 116.656C147.243 106.279 150.409 94.4591 150.409 82.4759C150.409 44.7818 119.742 14.1152 82.0481 14.1152C44.3541 14.1152 13.6875 44.7818 13.6875 82.4759C13.6875 120.17 44.3541 150.837 82.0481 150.837C94.0314 150.837 105.849 147.67 116.228 141.679C118.275 140.497 118.975 137.881 117.796 135.836C116.614 133.789 113.998 133.089 111.951 134.27C102.872 139.512 92.531 142.282 82.0481 142.282C49.0708 142.282 22.2422 115.453 22.2422 82.4759C22.2422 49.4986 49.0708 22.6699 82.0481 22.6699C115.025 22.6699 141.856 49.4986 141.856 82.4759C141.856 92.9587 139.084 103.3 133.842 112.379C132.661 114.424 133.363 117.041 135.408 118.222C137.453 119.403 140.07 118.701 141.251 116.656Z" fill="#7441F3"/>
<path d="M127.422 127.914C128.234 128.631 129.243 128.982 130.249 128.982C131.433 128.982 132.613 128.492 133.458 127.533L133.5 127.487C135.062 125.714 134.892 123.012 133.119 121.45C131.348 119.888 128.645 120.058 127.082 121.829L127.041 121.876C125.478 123.649 125.649 126.352 127.422 127.914Z" fill="#7441F3"/>
<path d="M67.0774 93.1692C64.7215 93.1692 62.8 95.0907 62.8 97.4465C62.8 99.8024 64.7215 101.722 67.0774 101.722C69.4333 101.722 71.3547 99.8024 71.3547 97.4465C71.3547 95.0907 69.4333 93.1692 67.0774 93.1692Z" fill="#7441F3"/>
<path d="M67.0774 58.9504C64.7165 58.9504 62.8 60.8669 62.8 63.2278C62.8 65.5903 64.7165 67.5051 67.0774 67.5051C83.5869 67.5051 97.0188 80.937 97.0188 97.4465C97.0188 99.8074 98.9336 101.722 101.296 101.722C103.659 101.722 105.573 99.8074 105.573 97.4465C105.573 76.2202 88.3037 58.9504 67.0774 58.9504Z" fill="#7441F3"/>
<path d="M67.0774 76.0598C64.7165 76.0598 62.8 77.9746 62.8 80.3372C62.8 82.6981 64.7165 84.6145 67.0774 84.6145C74.1534 84.6145 79.9094 90.3705 79.9094 97.4465C79.9094 99.8074 81.8242 101.722 84.1868 101.722C86.5493 101.722 88.4641 99.8074 88.4641 97.4465C88.4641 85.6538 78.8702 76.0598 67.0774 76.0598Z" fill="#7441F3"/>
<path d="M82.0481 35.4268C56.105 35.4268 34.999 56.5328 34.999 82.4759C34.999 108.419 56.105 129.525 82.0481 129.525C107.991 129.525 129.097 108.419 129.097 82.4759C129.097 56.5328 107.991 35.4268 82.0481 35.4268ZM82.0481 120.97C60.8218 120.97 43.5537 103.702 43.5537 82.4759C43.5537 61.2495 60.8218 43.9814 82.0481 43.9814C103.274 43.9814 120.543 61.2495 120.543 82.4759C120.543 103.702 103.274 120.97 82.0481 120.97Z" fill="#7441F3"/>
</g>
<defs>
<clipPath id="clip0_669_1660">
<rect width="219" height="219" fill="white"/>
</clipPath>
</defs>
</svg>
