<svg width="100" height="100" viewBox="0 0 100 100" fill="none" xmlns="http://www.w3.org/2000/svg">
<g clip-path="url(#clip0_1260_753)">
<path d="M75.2344 36.5869H65.214L61.8211 29.4714C61.2138 28.198 59.9099 27.3753 58.4992 27.3753H55.0818V16.2074C55.0818 12.875 57.7931 10.1638 61.1256 10.1638C64.4582 10.1638 67.1692 12.875 67.1692 16.2074V32.1889C67.1692 32.9984 67.8255 33.6548 68.6351 33.6548C69.4447 33.6548 70.1011 32.9984 70.1011 32.1889V16.2074C70.1011 11.2582 66.0746 7.23196 61.1256 7.23196C56.1766 7.23196 52.15 11.2584 52.15 16.2074V27.3751H47.8499V16.2074C47.8499 8.8871 53.8053 2.93187 61.1254 2.93187C63.7934 2.93187 66.3684 3.72446 68.5724 5.22382C69.2416 5.67943 70.1536 5.50586 70.6089 4.83642C71.0643 4.16717 70.8909 3.25536 70.2215 2.79994C67.5294 0.968105 64.3841 0 61.1254 0C52.1885 0 44.918 7.27066 44.918 16.2074V27.3751H41.5006C40.09 27.3751 38.7861 28.1978 38.1788 29.4714L34.7858 36.5867H24.7655C17.5112 36.5867 11.6094 42.4885 11.6094 49.7428V53.924C11.6094 55.7046 13.0581 57.1534 14.8389 57.1534H24.8665C25.6761 57.1534 26.3325 56.497 26.3325 55.6874C26.3325 54.8778 25.6761 54.2215 24.8665 54.2215H14.8387C14.6746 54.2215 14.5411 54.088 14.5411 53.924V49.7428C14.5411 44.1052 19.1277 39.5185 24.7653 39.5185H49.909C50.7186 39.5185 51.375 38.8622 51.375 38.0526C51.375 37.243 50.7186 36.5867 49.909 36.5867H38.0338L40.8251 30.7333C40.9487 30.4743 41.2137 30.307 41.5006 30.307H58.4994C58.7864 30.307 59.0514 30.4743 59.1749 30.7333L61.9663 36.5867H56.1565C55.3469 36.5867 54.6905 37.243 54.6905 38.0526C54.6905 38.8622 55.3469 39.5185 56.1565 39.5185H75.2346C80.8722 39.5185 85.4588 44.1052 85.4588 49.7428V53.924C85.4588 54.088 85.3253 54.2215 85.1611 54.2215H31.1136C30.304 54.2215 29.6476 54.8778 29.6476 55.6874C29.6476 56.497 30.304 57.1534 31.1136 57.1534H85.1609C86.9418 57.1534 88.3905 55.7046 88.3905 53.924V49.7428C88.3905 42.4885 82.4888 36.5869 75.2344 36.5869Z" fill="#7441F3"/>
<path d="M74.4012 16.2075V32.2016C74.4012 33.0112 75.0575 33.6676 75.8671 33.6676C76.6767 33.6676 77.3331 33.0112 77.3331 32.2016V16.2075C77.3331 13.2261 76.512 10.3087 74.9586 7.77031C74.5363 7.07995 73.6338 6.8626 72.9431 7.28518C72.2525 7.70776 72.0354 8.61019 72.458 9.30075C73.7292 11.3783 74.4012 13.7666 74.4012 16.2075Z" fill="#7441F3"/>
<path d="M75.8671 59.89C75.0575 59.89 74.4011 60.5464 74.4011 61.356V98.5339C74.4011 99.3435 75.0575 99.9998 75.8671 99.9998C76.6766 99.9998 77.333 99.3435 77.333 98.5339V61.356C77.333 60.5464 76.6766 59.89 75.8671 59.89Z" fill="#7441F3"/>
<path d="M68.6351 59.89C67.8255 59.89 67.1692 60.5464 67.1692 61.356V98.5339C67.1692 99.3435 67.8255 99.9998 68.6351 99.9998C69.4447 99.9998 70.1011 99.3435 70.1011 98.5339V61.356C70.1011 60.5464 69.4447 59.89 68.6351 59.89Z" fill="#7441F3"/>
<path d="M53.5638 64.0057C52.7542 64.0057 52.0979 64.6621 52.0979 65.4717V85.5114C52.0979 86.321 52.7542 86.9774 53.5638 86.9774C54.3734 86.9774 55.0298 86.321 55.0298 85.5114V65.4717C55.0298 64.6621 54.3734 64.0057 53.5638 64.0057Z" fill="#7441F3"/>
<path d="M53.5638 92.8956C52.7542 92.8956 52.0979 93.552 52.0979 94.3616V98.4935C52.0979 99.3031 52.7542 99.9595 53.5638 99.9595C54.3734 99.9595 55.0298 99.3031 55.0298 98.4935V94.3616C55.0298 93.552 54.3734 92.8956 53.5638 92.8956Z" fill="#7441F3"/>
<path d="M43.3741 64.0057C42.5646 64.0057 41.9082 64.6621 41.9082 65.4717V74.7503C41.9082 75.5599 42.5646 76.2162 43.3741 76.2162C44.1837 76.2162 44.8401 75.5599 44.8401 74.7503V65.4717C44.8401 64.6621 44.1837 64.0057 43.3741 64.0057Z" fill="#7441F3"/>
<path d="M43.3741 79.8359C42.5646 79.8359 41.9082 80.4923 41.9082 81.3019V98.4938C41.9082 99.3034 42.5646 99.9597 43.3741 99.9597C44.1837 99.9597 44.8401 99.3034 44.8401 98.4938V81.3019C44.8401 80.4921 44.1837 79.8359 43.3741 79.8359Z" fill="#7441F3"/>
<path d="M34.0384 68.6451C33.2289 68.6451 32.5725 69.3015 32.5725 70.1111V84.4137C32.5725 85.2233 33.2289 85.8797 34.0384 85.8797C34.848 85.8797 35.5044 85.2233 35.5044 84.4137V70.1111C35.5044 69.3015 34.848 68.6451 34.0384 68.6451Z" fill="#7441F3"/>
<path d="M24.8663 63.5469C24.0567 63.5469 23.4004 64.2032 23.4004 65.0128V70.5814C23.4004 71.391 24.0567 72.0474 24.8663 72.0474C25.6759 72.0474 26.3323 71.391 26.3323 70.5814V65.0128C26.3323 64.2032 25.6759 63.5469 24.8663 63.5469Z" fill="#7441F3"/>
<path d="M24.8663 80.2382C24.0567 80.2382 23.4004 80.8945 23.4004 81.7041V98.5338C23.4004 99.3434 24.0567 99.9998 24.8663 99.9998C25.6759 99.9998 26.3323 99.3434 26.3323 98.5338V81.7041C26.3323 80.8945 25.6759 80.2382 24.8663 80.2382Z" fill="#7441F3"/>
</g>
<defs>
<clipPath id="clip0_1260_753">
<rect width="100" height="100" fill="white"/>
</clipPath>
</defs>
</svg>
