<svg width="94" height="94" viewBox="0 0 94 94" fill="none" xmlns="http://www.w3.org/2000/svg">
<g clip-path="url(#clip0_1260_766)">
<path d="M81.2402 74.2861C80.1325 74.2501 79.0862 74.6468 78.2811 75.4015L76.7173 76.8676C76.0186 77.523 74.9609 77.5735 74.2023 76.9873C73.7809 76.6618 73.5172 76.1906 73.4593 75.6611C73.4019 75.1314 73.5581 74.615 73.8997 74.2062L83.8371 62.3169C87.1288 58.3785 86.7693 52.5486 83.0184 49.0447C79.1536 45.4338 73.0451 45.6162 69.4018 49.4508L67.7866 51.151V49.313C67.7866 47.0994 65.9856 45.2987 63.7721 45.2987H36.9173C36.9035 42.482 34.6083 40.1945 31.7883 40.1945C28.9683 40.1945 26.6731 42.482 26.6593 45.2987H11.9271C9.71347 45.2987 7.9126 47.0995 7.9126 49.313V55.443C7.9126 56.2038 8.52923 56.8202 9.28983 56.8202C10.0504 56.8202 10.6671 56.2038 10.6671 55.443V49.313C10.6671 48.6184 11.2325 48.0531 11.9271 48.0531H26.6586V51.3655C26.1216 51.5252 25.6042 51.7768 25.1317 52.127L19.9505 55.9682C18.7156 56.8838 17.9785 58.3482 17.9785 59.8854V74.9773C17.9785 77.6662 20.1661 79.8536 22.8548 79.8536H33.217C35.9057 79.8536 38.0933 77.6662 38.0933 74.9773V71.3317C38.0933 70.5709 37.4767 69.9544 36.716 69.9544C35.9555 69.9544 35.3388 70.5709 35.3388 71.3317V74.9773C35.3388 76.1472 34.3869 77.0992 33.217 77.0992H22.8548C21.6849 77.0992 20.733 76.1472 20.733 74.9773V59.8854C20.733 59.2164 21.0538 58.5792 21.5911 58.1809L26.7722 54.3397C27.141 54.0665 27.5714 53.9275 28.0035 53.9209C28.0143 53.9211 28.025 53.9225 28.0358 53.9225C28.0466 53.9225 28.0573 53.9211 28.0681 53.9209C28.5002 53.9275 28.9306 54.0665 29.2994 54.3399L34.4803 58.1808C35.0178 58.5792 35.3386 59.2166 35.3386 59.8854V65.4311C35.3386 66.1918 35.9553 66.8083 36.7159 66.8083C37.4765 66.8083 38.0931 66.1918 38.0931 65.4311V59.8854C38.0931 58.3482 37.3558 56.8838 36.1209 55.968L30.9399 52.1274C30.4675 51.777 29.95 51.5254 29.4132 51.3657V48.0531H63.7723C64.4671 48.0531 65.0323 48.6184 65.0323 49.313V79.3125C65.0323 85.8923 59.6793 91.2454 53.0992 91.2454H22.6001C16.0201 91.2454 10.6671 85.8923 10.6671 79.3125V61.3438C10.6671 60.583 10.0504 59.9666 9.28983 59.9666C8.52923 59.9666 7.9126 60.583 7.9126 61.3438V79.3128C7.9126 87.4115 14.5015 94.0002 22.6001 94.0002H53.0991C60.2882 94.0002 66.2834 88.8067 67.5404 81.9757C68.0136 82.5418 68.5501 83.0628 69.1499 83.5262C70.9627 84.9272 73.1205 85.6676 75.3906 85.6676H75.3926C77.9851 85.6676 80.4627 84.6835 82.3691 82.8964L83.9329 81.4303C84.738 80.6756 85.2009 79.6522 85.2367 78.5495C85.2723 77.4462 84.8762 76.3955 84.1217 75.5906C83.3666 74.785 82.3432 74.3217 81.2402 74.2861ZM31.7883 42.9491C33.0893 42.9491 34.1483 44.0011 34.1621 45.2989H29.4143C29.4283 44.0009 30.4873 42.9491 31.7883 42.9491ZM82.0489 79.4206L80.4853 80.8867C79.0913 82.1933 77.2827 82.9129 75.3924 82.9129C75.3919 82.9129 75.3913 82.9129 75.3908 82.9129C73.7357 82.9129 72.16 82.3714 70.8341 81.3465C69.2164 80.0966 68.204 78.2891 67.9831 76.2568C67.762 74.225 68.3621 72.2419 69.6732 70.6734L73.097 66.5771C73.5848 65.9935 73.5071 65.1249 72.9235 64.6372C72.3399 64.1495 71.4715 64.2274 70.9836 64.8108L67.7872 68.635V63.1491L75.3935 55.1426C75.9248 54.5832 76.8148 54.5572 77.3782 55.0833C77.9249 55.5939 77.9772 56.4436 77.4974 57.0175L74.7626 60.289C74.2748 60.8728 74.3525 61.7412 74.9359 62.2291C75.5199 62.7168 76.3883 62.6391 76.876 62.0557L79.6108 58.784C81.0277 57.0885 80.8729 54.5788 79.2582 53.0703C77.594 51.516 74.9644 51.5945 73.3962 53.2455L67.787 59.1498V55.1507L71.3992 51.3482C74.0049 48.6053 78.3739 48.4751 81.1384 51.0577C83.8211 53.5637 84.0785 57.7336 81.7238 60.5507L71.7866 72.4399C70.9603 73.4282 70.5818 74.678 70.7212 75.9594C70.8608 77.2404 71.4989 78.3794 72.5182 79.167C74.3521 80.5843 76.9105 80.4622 78.6016 78.8773L80.1654 77.4111C80.4336 77.1594 80.7848 77.0314 81.1515 77.0393C81.5191 77.051 81.8601 77.2055 82.1119 77.4743C82.3634 77.7426 82.4955 78.0928 82.4835 78.4604C82.4716 78.828 82.3173 79.169 82.0489 79.4206Z" fill="#7441F3"/>
<path d="M23.9653 61.7691C23.9653 64.0136 25.7914 65.8397 28.0359 65.8397C30.2802 65.8397 32.1062 64.0136 32.1062 61.7691C32.1062 59.5246 30.2802 57.6987 28.0359 57.6987C25.7914 57.6987 23.9653 59.5246 23.9653 61.7691ZM29.3518 61.7691C29.3518 62.4948 28.7614 63.0852 28.0359 63.0852C27.3102 63.0852 26.7198 62.4948 26.7198 61.7691C26.7198 61.0436 27.3102 60.4532 28.0359 60.4532C28.7614 60.4532 29.3518 61.0436 29.3518 61.7691Z" fill="#7441F3"/>
<path d="M19.8729 37.7707L19.6121 38.8257C19.4296 39.564 19.88 40.3107 20.6184 40.4932C20.7293 40.5206 20.8406 40.5338 20.95 40.5338C21.5685 40.5338 22.1308 40.1142 22.286 39.4867L22.5467 38.4318C24.4594 30.6954 31.361 25.2922 39.33 25.2922H53.4186C62.4747 25.2922 69.8426 17.9244 69.8426 8.86828V1.37723C69.8426 0.616449 69.2261 0 68.4653 0C67.7045 0 67.0881 0.616449 67.0881 1.37723V8.86809C67.0881 16.4056 60.9559 22.5376 53.4186 22.5376H39.33C30.0914 22.5376 22.0902 28.8018 19.8729 37.7707Z" fill="#7441F3"/>
<path d="M53.4187 28.4139H39.3304C38.5698 28.4139 37.9531 29.0304 37.9531 29.7912C37.9531 30.552 38.5698 31.1684 39.3304 31.1684H53.4187C65.7152 31.1684 75.7189 21.1644 75.7189 8.86808C75.7189 8.10729 75.1024 7.49084 74.3416 7.49084C73.5809 7.49084 72.9644 8.10729 72.9644 8.86808C72.9644 19.6457 64.1962 28.4139 53.4187 28.4139Z" fill="#7441F3"/>
<path d="M14.5459 39.156C14.5459 39.9168 15.1625 40.5332 15.9231 40.5332C16.6837 40.5332 17.3004 39.9168 17.3004 39.156V37.5353C17.3004 27.1104 24.7538 18.2406 35.0231 16.4451L39.1888 15.7166C44.8296 14.7305 48.9236 9.85878 48.9236 4.13243V1.37723C48.9236 0.616449 48.3072 0 47.5464 0C46.7856 0 46.1692 0.616449 46.1692 1.37723V4.13262C46.1692 8.51773 43.034 12.2484 38.7145 13.0036L34.5488 13.7321C22.9584 15.7583 14.5459 25.7693 14.5459 37.5355V39.156Z" fill="#7441F3"/>
<path d="M10.0693 35.7379C10.1203 35.7434 10.171 35.7464 10.2212 35.7464C10.9144 35.7464 11.5112 35.2241 11.5885 34.5191C11.7291 33.2381 11.9622 31.9582 12.2813 30.7141C13.5744 25.674 16.2727 21.1306 20.0843 17.5746C20.6406 17.0557 20.6707 16.1843 20.1519 15.6279C19.6328 15.0717 18.7617 15.0416 18.2052 15.5603C14.0084 19.4755 11.0372 24.4789 9.61315 30.0294C9.26168 31.3991 9.00497 32.8086 8.85035 34.2184C8.76753 34.9747 9.31328 35.6551 10.0693 35.7379Z" fill="#7441F3"/>
</g>
<defs>
<clipPath id="clip0_1260_766">
<rect width="94" height="94" fill="white"/>
</clipPath>
</defs>
</svg>
